<svg xmlns="http://www.w3.org/2000/svg" id="Layer_1" data-name="Layer 1" viewBox="0 0 99.96 26.95"><defs><style>.cls-1{fill:#e23125;}</style></defs><path class="cls-1" d="M8.89,26.49V17.07L0,0H5.49l5.86,12.22L17.18,0h5.41L13.74,17.07v9.42Z"></path><path class="cls-1" d="M28.07,27a9.78,9.78,0,0,1-4.92-1.25,9.26,9.26,0,0,1-3.44-3.45,10.25,10.25,0,0,1-1.25-5.14A10,10,0,0,1,19.74,12a9.3,9.3,0,0,1,3.45-3.48,9.68,9.68,0,0,1,4.92-1.25A9.41,9.41,0,0,1,33,8.52,9,9,0,0,1,36.4,12a10,10,0,0,1,1.28,5.11,10.16,10.16,0,0,1-1.28,5.14A9,9,0,0,1,33,25.7,9.71,9.71,0,0,1,28.07,27Zm0-4.2a4.51,4.51,0,0,0,3.29-1.4,5.83,5.83,0,0,0,1.4-4.24,5.67,5.67,0,0,0-1.4-4.2,4.4,4.4,0,0,0-3.25-1.44,4.48,4.48,0,0,0-3.33,1.44,5.79,5.79,0,0,0-1.37,4.2,6,6,0,0,0,1.37,4.24A4.51,4.51,0,0,0,28.07,22.75Z"></path><path class="cls-1" d="M69.58,9.46a6.84,6.84,0,0,0-5.41-2.19,7.48,7.48,0,0,0-3.9,1,7.43,7.43,0,0,0-1,.75,7,7,0,0,0-1.55,2l-5.32,9.35a12.2,12.2,0,0,1-.85,1.1,4.15,4.15,0,0,1-2.66,1.4,4.26,4.26,0,0,1-.63,0,3.64,3.64,0,0,1-3.1-1.29,6,6,0,0,1-1-3.71V7.72h-4.8v10.6c0,2.82.63,5,1.89,6.43A6.84,6.84,0,0,0,46.69,27a7.58,7.58,0,0,0,3.19-.65,4.77,4.77,0,0,0,.63-.34,6.89,6.89,0,0,0,2.61-2.72l3.52-6.85a13,13,0,0,1,2.61-3.6,4.38,4.38,0,0,1,3.37-1.44,3.59,3.59,0,0,1,3.06,1.29,6,6,0,0,1,1,3.71V26.49h4.84V15.9C71.51,13.07,70.87,10.93,69.58,9.46Z"></path><path class="cls-1" d="M76.45,5.67a2.81,2.81,0,0,1-2.06-.81,2.86,2.86,0,0,1-.77-2,2.72,2.72,0,0,1,.77-2,2.59,2.59,0,0,1,2-.81,2.9,2.9,0,0,1,2.12.81,2.64,2.64,0,0,1,.81,2,2.77,2.77,0,0,1-.81,2A2.67,2.67,0,0,1,76.45,5.67ZM74,26.49V7.72h4.84V26.49Z"></path><path class="cls-1" d="M90.76,27a10.08,10.08,0,0,1-5.07-1.25,9.16,9.16,0,0,1-3.48-3.48A10.24,10.24,0,0,1,81,17.11,10.21,10.21,0,0,1,82.21,12a9.09,9.09,0,0,1,3.48-3.48,10,10,0,0,1,5.07-1.25,9.65,9.65,0,0,1,6.06,1.89A8.32,8.32,0,0,1,100,14.31H94.85a3.64,3.64,0,0,0-1.52-2.12,4.33,4.33,0,0,0-2.61-.8,4.45,4.45,0,0,0-3.4,1.52,5.91,5.91,0,0,0-1.4,4.2,5.92,5.92,0,0,0,1.4,4.2,4.69,4.69,0,0,0,6,.75,3.64,3.64,0,0,0,1.52-2.15H100A8.6,8.6,0,0,1,96.82,25,9.55,9.55,0,0,1,90.76,27Z"></path></svg>